<svg xmlns="http://www.w3.org/2000/svg" viewBox="0 0 128 128">
<path fill="#231F20" d="M91.7 35.2c-6.4-6.4-16.8-6.4-23.2 0-3.7 3.7-5.4 8.6-5.2 13.4-4.8-.2-9.7 1.5-13.4 5.2-6.4 6.4-6.4 16.8 0 23.2 3.7 3.7 8.6 5.4 13.4 5.2.2 4.8-1.5 9.7-5.2 13.4-6.4 6.4-16.8 6.4-23.2 0-6.4-6.4-6.4-16.8 0-23.2 3.7-3.7 8.6-5.4 13.4-5.2-.2-4.8 1.5-9.7 5.2-13.4 6.4-6.4 16.8-6.4 23.2 0 6.4 6.4 6.4 16.8 0 23.2-3.7 3.7-8.6 5.4-13.4 5.2.2 4.8-1.5 9.7-5.2 13.4-6.4 6.4-16.8 6.4-23.2 0"/>
<circle fill="#231F20" cx="80.5" cy="46.5" r="8.3"/>
<circle fill="#231F20" cx="47.5" cy="46.5" r="8.3"/>
<circle fill="#231F20" cx="47.5" cy="79.5" r="8.3"/>
<circle fill="#231F20" cx="80.5" cy="79.5" r="8.3"/>
</svg>

