<svg xmlns="http://www.w3.org/2000/svg" viewBox="0 0 128 128">
<path fill="#326CE5" d="M64.184 24.601l-3.674 22.895 19.734-11.386-16.06-11.509zm32.291 7.054l-19.734 11.386 22.895 3.674-3.161-15.06zm7.054 32.291l-22.895 3.674 19.734 11.386 3.161-16.06zM87.47 87.47l-11.386 19.734 16.06-3.161-4.674-16.573zm-23.286 16.346l-3.674 22.895 11.509-16.06-7.835-6.835zM32.639 87.47l11.386 19.734-16.06-3.161 4.674-16.573zm23.286 16.346l3.674 22.895-11.509-16.06 7.835-6.835zM24.601 64.184l22.895-3.674-19.734-11.386 3.161 16.06zm-7.054-32.291l22.895-3.674-19.734-11.386-3.161 15.06zm16.346-7.292l11.386-19.734-16.06 3.161 4.674 16.573z"/>
<circle fill="#fff" cx="64" cy="64" r="13.5"/>
<path fill="#326CE5" d="M64 54.5c-1.4 0-2.7.3-3.9.8l-1.1-1.1c-.4-.4-1-.4-1.4 0-.4.4-.4 1 0 1.4l1.1 1.1c-.5 1.2-.8 2.5-.8 3.9s.3 2.7.8 3.9l-1.1 1.1c-.4.4-.4 1 0 1.4.2.2.4.3.7.3.3 0 .5-.1.7-.3l1.1-1.1c1.2.5 2.5.8 3.9.8s2.7-.3 3.9-.8l1.1 1.1c.2.2.4.3.7.3.3 0 .5-.1.7-.3.4-.4.4-1 0-1.4l-1.1-1.1c.5-1.2.8-2.5.8-3.9s-.3-2.7-.8-3.9l1.1-1.1c.4-.4.4-1 0-1.4-.4-.4-1-.4-1.4 0l-1.1 1.1c-1.2-.5-2.5-.8-3.9-.8z"/>
</svg>

