<svg xmlns="http://www.w3.org/2000/svg" viewBox="0 0 128 128">
<path fill="#E6522C" d="M64 13.9c-27.6 0-50 22.4-50 50s22.4 50 50 50 50-22.4 50-50-22.4-50-50-50zm0 95c-24.8 0-45-20.2-45-45s20.2-45 45-45 45 20.2 45 45-20.2 45-45 45z"/>
<circle fill="#E6522C" cx="64" cy="63.9" r="10"/>
<path fill="#E6522C" d="M64 30.4v15.5m0 36v15.5m-33.6-33.6h15.5m36 0h15.5m-60.5-10.2l11 11m36 0l11-11m-58-14l11 11m36 0l11-11"/>
<path fill="none" stroke="#E6522C" stroke-width="4" d="M64 30.4v15.5m0 36v15.5m-33.6-33.6h15.5m36 0h15.5"/>
</svg>

