<svg xmlns="http://www.w3.org/2000/svg" viewBox="0 0 128 128">
<path fill="#A41E11" d="M121.8 93.1c-5.4 2.4-31.2 13.2-36.5 15.8-5.2 2.6-8.1 2.6-12.8 0-4.6-2.6-30.8-13.4-36.5-15.8-5.6-2.4-8.6-3.9-8.6-7.3v-9.5c0 0 36.5 15.8 45.1 18.3 8.6 2.4 11.5 2.4 20.1 0 8.6-2.4 45.1-18.3 45.1-18.3v9.5c0 3.4-3 4.9-8.6 7.3h-.1-.2z"/>
<path fill="#D82C20" d="M121.8 72.5c-5.4 2.4-31.2 13.2-36.5 15.8-5.2 2.6-8.1 2.6-12.8 0-4.6-2.6-30.8-13.4-36.5-15.8-5.6-2.4-8.6-3.9-8.6-7.3v-9.5c0 0 36.5 15.8 45.1 18.3 8.6 2.4 11.5 2.4 20.1 0 8.6-2.4 45.1-18.3 45.1-18.3v9.5c0 3.4-3 4.9-8.6 7.3h-.1-.2z"/>
<path fill="#A41E11" d="M121.8 51.9c-5.4 2.4-31.2 13.2-36.5 15.8-5.2 2.6-8.1 2.6-12.8 0-4.6-2.6-30.8-13.4-36.5-15.8-5.6-2.4-8.6-3.9-8.6-7.3v-9.5c0 0 36.5 15.8 45.1 18.3 8.6 2.4 11.5 2.4 20.1 0 8.6-2.4 45.1-18.3 45.1-18.3v9.5c0 3.4-3 4.9-8.6 7.3h-.1-.2z"/>
<path fill="#D82C20" d="M121.8 31.1c-5.4 2.4-31.2 13.2-36.5 15.8-5.2 2.6-8.1 2.6-12.8 0-4.6-2.6-30.8-13.4-36.5-15.8-5.6-2.4-8.6-3.9-8.6-7.3s3-4.9 8.6-7.3c5.6-2.4 31.9-13.2 36.5-15.8 4.6-2.6 7.6-2.6 12.8 0 5.2 2.6 31 13.4 36.5 15.8 5.6 2.4 8.6 3.9 8.6 7.3s-3 4.9-8.6 7.3z"/>
<path fill="#fff" d="M94.5 36.3c1.2-.5 2.2-1.5 2.2-2.4 0-.8-1-1.3-2.2-.7-1.2.5-2.2 1.5-2.2 2.4 0 .8 1 1.3 2.2.7zm-7.9 3.4c1.9-.8 3.5-2.4 3.5-3.8 0-1.3-1.6-2-3.5-1.2-1.9.8-3.5 2.4-3.5 3.8 0 1.3 1.6 2 3.5 1.2zm-12.2 5.3c2.6-1.1 4.7-3.2 4.7-5.1 0-1.8-2.1-2.7-4.7-1.6-2.6 1.1-4.7 3.2-4.7 5.1 0 1.8 2.1 2.7 4.7 1.6z"/>
</svg>

